# xmcd
# Track frame offsets:
# 188
# 17823
# 30765
# 47311
# 64215
# 83474
# 104021
# 122229
# 137408
# 154880
# 170791
# 193347
#
# Disc length: 2881 seconds
# Revision: 0
# Processed by: cddbd v1.5.2PL0 Copyright (c) Steve Scherf et al.
# Submitted via: VisiTrax 2.9.10.228 - For more info visit www.synapsa.com
#
DISCID=9a0b3f0c
DTITLE=Campbell.Chris - The Many sides Of Chris Campbell
DYEAR=2005
DGENRE=
TTITLE0=Ordinary Guy
TTITLE1=Honky Tonk Lover
TTITLE2=lookin' Out For Tomorrow
TTITLE3=If The Love Fits (Wear It Baby)
TTITLE4=Girl From Stoney River.The
TTITLE5=Long Hot Summer Nights
TTITLE6=Rodeo Cowboy
TTITLE7=Love Is (A Four letter Heartbreak)
TTITLE8=F.A.Q. (Frequently Asked Questions)
TTITLE9=All I Need Is You
TTITLE10=Heaven Is You
TTITLE11=Honky Tonk Lover (club Mix)
EXTD=
EXTT0=
EXTT1=
EXTT2=
EXTT3=
EXTT4=
EXTT5=
EXTT6=
EXTT7=
EXTT8=
EXTT9=
EXTT10=
EXTT11=
PLAYORDER=
